<svg xmlns="http://www.w3.org/2000/svg" xmlns:xlink="http://www.w3.org/1999/xlink" width="500" zoomAndPan="magnify" viewBox="0 0 375 225" height="300" preserveAspectRatio="xMidYMid meet" version="1.0"><defs><g/><clipPath id="42c7886b30"><path d="M 21 29 L 355 29 L 355 223 L 21 223 Z M 21 29 " clip-rule="nonzero"/></clipPath><clipPath id="979003096c"><path d="M 75.71875 -58.667969 L 378.011719 57.933594 L 299.464844 261.558594 L -2.824219 144.957031 Z M 75.71875 -58.667969 " clip-rule="nonzero"/></clipPath><clipPath id="50fc7d1b1e"><path d="M 75.71875 -58.667969 L 378.011719 57.933594 L 299.464844 261.558594 L -2.824219 144.957031 Z M 75.71875 -58.667969 " clip-rule="nonzero"/></clipPath><clipPath id="b5f965ef7c"><path d="M 352.738281 104.390625 C 360.257812 78.84375 347.414062 51.214844 323.160156 40.347656 C 304.4375 31.890625 283.714844 35.027344 268.617188 46.378906 C 261.089844 51.996094 250.679688 51.554688 243.367188 45.574219 C 237.738281 40.929688 231.140625 37.011719 223.964844 34.242188 C 202.910156 26.121094 180.347656 28.6875 162.191406 39.410156 C 151.675781 45.660156 138.621094 45.296875 128.070312 39.167969 C 123.488281 36.4375 118.4375 34.214844 113.15625 32.589844 C 78.902344 21.988281 41.78125 39.136719 27.472656 71.957031 C 11.171875 109.234375 29.394531 152.128906 66.953125 166.617188 C 82.503906 172.613281 98.816406 172.722656 113.476562 168.207031 C 128.300781 163.617188 144.144531 170.28125 151.171875 184.121094 C 159.394531 200.210938 173.726562 213.296875 192.515625 219.445312 C 227.0625 230.707031 265.160156 213.523438 279.53125 180.175781 C 281.175781 176.277344 282.484375 172.523438 283.484375 168.507812 C 286.746094 155.0625 297.285156 144.835938 310.921875 142.265625 C 329.996094 138.765625 346.753906 124.890625 352.738281 104.390625 Z M 352.738281 104.390625 " clip-rule="nonzero"/></clipPath><clipPath id="bd85a1334b"><path d="M 122 3 L 153 3 L 153 35 L 122 35 Z M 122 3 " clip-rule="nonzero"/></clipPath><clipPath id="ab7c576861"><path d="M 75.71875 -58.667969 L 378.011719 57.933594 L 299.464844 261.558594 L -2.824219 144.957031 Z M 75.71875 -58.667969 " clip-rule="nonzero"/></clipPath><clipPath id="a022faeeb3"><path d="M 75.71875 -58.667969 L 378.011719 57.933594 L 299.464844 261.558594 L -2.824219 144.957031 Z M 75.71875 -58.667969 " clip-rule="nonzero"/></clipPath><clipPath id="889713b075"><path d="M 151.675781 24.636719 C 151.316406 25.570312 150.867188 26.460938 150.332031 27.308594 C 149.796875 28.152344 149.183594 28.941406 148.492188 29.664062 C 147.800781 30.390625 147.046875 31.042969 146.226562 31.617188 C 145.40625 32.195312 144.539062 32.6875 143.625 33.09375 C 142.710938 33.5 141.761719 33.8125 140.785156 34.03125 C 139.808594 34.25 138.816406 34.371094 137.816406 34.398438 C 136.816406 34.421875 135.820312 34.347656 134.832031 34.175781 C 133.847656 34.007812 132.886719 33.742188 131.949219 33.378906 C 131.015625 33.019531 130.125 32.570312 129.28125 32.035156 C 128.433594 31.5 127.648438 30.886719 126.921875 30.195312 C 126.195312 29.503906 125.542969 28.75 124.96875 27.929688 C 124.390625 27.113281 123.898438 26.242188 123.492188 25.328125 C 123.085938 24.414062 122.773438 23.464844 122.554688 22.488281 C 122.335938 21.511719 122.214844 20.519531 122.1875 19.519531 C 122.164062 18.519531 122.238281 17.523438 122.410156 16.535156 C 122.582031 15.550781 122.847656 14.589844 123.207031 13.652344 C 123.566406 12.71875 124.015625 11.828125 124.550781 10.984375 C 125.085938 10.136719 125.699219 9.351562 126.390625 8.625 C 127.082031 7.898438 127.835938 7.246094 128.65625 6.671875 C 129.476562 6.09375 130.34375 5.601562 131.257812 5.195312 C 132.175781 4.789062 133.121094 4.476562 134.097656 4.257812 C 135.074219 4.039062 136.066406 3.917969 137.066406 3.890625 C 138.070312 3.867188 139.0625 3.941406 140.050781 4.113281 C 141.035156 4.285156 141.996094 4.550781 142.933594 4.910156 C 143.867188 5.269531 144.757812 5.71875 145.605469 6.253906 C 146.449219 6.789062 147.238281 7.402344 147.960938 8.09375 C 148.6875 8.785156 149.339844 9.539062 149.914062 10.359375 C 150.492188 11.179688 150.984375 12.046875 151.390625 12.960938 C 151.796875 13.878906 152.109375 14.824219 152.328125 15.800781 C 152.546875 16.78125 152.667969 17.769531 152.695312 18.769531 C 152.71875 19.773438 152.644531 20.765625 152.472656 21.753906 C 152.304688 22.738281 152.039062 23.699219 151.675781 24.636719 Z M 151.675781 24.636719 " clip-rule="nonzero"/></clipPath><clipPath id="2d3865ed73"><path d="M 220 1 L 240 1 L 240 20 L 220 20 Z M 220 1 " clip-rule="nonzero"/></clipPath><clipPath id="b3ea2c6f45"><path d="M 75.71875 -58.667969 L 378.011719 57.933594 L 299.464844 261.558594 L -2.824219 144.957031 Z M 75.71875 -58.667969 " clip-rule="nonzero"/></clipPath><clipPath id="b0b1a633b9"><path d="M 75.71875 -58.667969 L 378.011719 57.933594 L 299.464844 261.558594 L -2.824219 144.957031 Z M 75.71875 -58.667969 " clip-rule="nonzero"/></clipPath><clipPath id="7f54f2c8dc"><path d="M 238.425781 13.847656 C 238.210938 14.40625 237.945312 14.9375 237.625 15.441406 C 237.304688 15.945312 236.9375 16.417969 236.527344 16.847656 C 236.113281 17.28125 235.664062 17.671875 235.175781 18.015625 C 234.6875 18.359375 234.167969 18.652344 233.621094 18.894531 C 233.074219 19.136719 232.511719 19.324219 231.929688 19.453125 C 231.34375 19.585938 230.753906 19.65625 230.15625 19.671875 C 229.558594 19.6875 228.964844 19.644531 228.378906 19.542969 C 227.789062 19.4375 227.214844 19.28125 226.65625 19.066406 C 226.101562 18.851562 225.570312 18.582031 225.0625 18.261719 C 224.558594 17.941406 224.089844 17.578125 223.65625 17.164062 C 223.222656 16.753906 222.835938 16.300781 222.492188 15.8125 C 222.148438 15.324219 221.855469 14.808594 221.613281 14.261719 C 221.367188 13.714844 221.183594 13.148438 221.050781 12.566406 C 220.921875 11.984375 220.847656 11.394531 220.832031 10.796875 C 220.820312 10.199219 220.863281 9.605469 220.964844 9.015625 C 221.066406 8.425781 221.226562 7.855469 221.441406 7.296875 C 221.65625 6.738281 221.921875 6.207031 222.242188 5.703125 C 222.5625 5.199219 222.929688 4.726562 223.339844 4.296875 C 223.753906 3.863281 224.203125 3.472656 224.691406 3.128906 C 225.179688 2.785156 225.699219 2.492188 226.246094 2.25 C 226.789062 2.007812 227.355469 1.820312 227.9375 1.691406 C 228.523438 1.558594 229.113281 1.488281 229.710938 1.472656 C 230.308594 1.457031 230.902344 1.5 231.488281 1.601562 C 232.078125 1.707031 232.652344 1.863281 233.210938 2.078125 C 233.765625 2.292969 234.296875 2.5625 234.804688 2.882812 C 235.308594 3.203125 235.777344 3.566406 236.210938 3.980469 C 236.644531 4.390625 237.03125 4.84375 237.375 5.332031 C 237.71875 5.820312 238.011719 6.335938 238.253906 6.882812 C 238.496094 7.429688 238.683594 7.996094 238.816406 8.578125 C 238.945312 9.160156 239.019531 9.75 239.035156 10.347656 C 239.046875 10.945312 239.003906 11.539062 238.902344 12.128906 C 238.800781 12.71875 238.640625 13.289062 238.425781 13.847656 Z M 238.425781 13.847656 " clip-rule="nonzero"/></clipPath><clipPath id="ff85bfad67"><path d="M 302 161 L 332 161 L 332 191 L 302 191 Z M 302 161 " clip-rule="nonzero"/></clipPath><clipPath id="f60e417acc"><path d="M 75.71875 -58.667969 L 378.011719 57.933594 L 299.464844 261.558594 L -2.824219 144.957031 Z M 75.71875 -58.667969 " clip-rule="nonzero"/></clipPath><clipPath id="3b9d62829b"><path d="M 75.71875 -58.667969 L 378.011719 57.933594 L 299.464844 261.558594 L -2.824219 144.957031 Z M 75.71875 -58.667969 " clip-rule="nonzero"/></clipPath><clipPath id="1aaeb9969e"><path d="M 330.046875 181.386719 C 329.710938 182.265625 329.289062 183.105469 328.78125 183.898438 C 328.277344 184.695312 327.703125 185.4375 327.050781 186.121094 C 326.402344 186.800781 325.691406 187.414062 324.917969 187.957031 C 324.148438 188.5 323.332031 188.964844 322.46875 189.347656 C 321.609375 189.726562 320.71875 190.023438 319.796875 190.230469 C 318.878906 190.433594 317.945312 190.550781 317.003906 190.574219 C 316.0625 190.597656 315.125 190.527344 314.195312 190.367188 C 313.265625 190.207031 312.363281 189.957031 311.484375 189.617188 C 310.605469 189.277344 309.765625 188.855469 308.96875 188.351562 C 308.171875 187.847656 307.433594 187.269531 306.75 186.617188 C 306.066406 185.96875 305.453125 185.257812 304.910156 184.488281 C 304.367188 183.714844 303.90625 182.898438 303.523438 182.039062 C 303.140625 181.175781 302.847656 180.285156 302.640625 179.363281 C 302.433594 178.445312 302.320312 177.511719 302.296875 176.570312 C 302.273438 175.628906 302.339844 174.691406 302.503906 173.761719 C 302.664062 172.835938 302.914062 171.929688 303.253906 171.050781 C 303.59375 170.171875 304.015625 169.332031 304.519531 168.535156 C 305.023438 167.738281 305.601562 167 306.25 166.316406 C 306.902344 165.632812 307.613281 165.019531 308.382812 164.476562 C 309.152344 163.933594 309.96875 163.472656 310.832031 163.089844 C 311.695312 162.707031 312.585938 162.414062 313.503906 162.207031 C 314.425781 162 315.355469 161.886719 316.296875 161.863281 C 317.242188 161.839844 318.175781 161.910156 319.105469 162.070312 C 320.035156 162.230469 320.9375 162.480469 321.820312 162.820312 C 322.699219 163.160156 323.535156 163.582031 324.332031 164.085938 C 325.128906 164.589844 325.871094 165.167969 326.550781 165.816406 C 327.234375 166.46875 327.847656 167.179688 328.390625 167.949219 C 328.933594 168.71875 329.398438 169.535156 329.777344 170.398438 C 330.160156 171.261719 330.457031 172.152344 330.660156 173.070312 C 330.867188 173.992188 330.984375 174.921875 331.007812 175.867188 C 331.03125 176.808594 330.960938 177.742188 330.800781 178.671875 C 330.636719 179.601562 330.386719 180.507812 330.046875 181.386719 Z M 330.046875 181.386719 " clip-rule="nonzero"/></clipPath><clipPath id="92a6b86ccc"><rect x="0" width="122" y="0" height="113"/></clipPath><clipPath id="72c9e4f120"><rect x="0" width="206" y="0" height="136"/></clipPath><clipPath id="e6206a41e0"><rect x="0" width="120" y="0" height="57"/></clipPath></defs><rect x="-37.5" width="450" fill="#ffffff" y="-22.5" height="270" fill-opacity="1"/><rect x="-37.5" width="450" fill="#ffffff" y="-22.5" height="270" fill-opacity="1"/><g clip-path="url(#42c7886b30)"><g clip-path="url(#979003096c)"><g clip-path="url(#50fc7d1b1e)"><g clip-path="url(#b5f965ef7c)"><path fill="#2d5a27" d="M 56.382812 -95.222656 L -56.992188 198.707031 L 315.046875 342.210938 L 428.421875 48.28125 Z M 56.382812 -95.222656 " fill-opacity="1" fill-rule="nonzero"/></g></g></g></g><g clip-path="url(#bd85a1334b)"><g clip-path="url(#ab7c576861)"><g clip-path="url(#a022faeeb3)"><g clip-path="url(#889713b075)"><path fill="#2d5a27" d="M 126.121094 -6.390625 L 111.90625 30.464844 L 148.761719 44.679688 L 162.976562 7.824219 Z M 126.121094 -6.390625 " fill-opacity="1" fill-rule="nonzero"/></g></g></g></g><g clip-path="url(#2d3865ed73)"><g clip-path="url(#b3ea2c6f45)"><g clip-path="url(#b0b1a633b9)"><g clip-path="url(#7f54f2c8dc)"><path fill="#2d5a27" d="M 223.179688 -4.664062 L 214.699219 17.328125 L 236.6875 25.808594 L 245.167969 3.816406 Z M 223.179688 -4.664062 " fill-opacity="1" fill-rule="nonzero"/></g></g></g></g><g clip-path="url(#ff85bfad67)"><g clip-path="url(#f60e417acc)"><g clip-path="url(#3b9d62829b)"><g clip-path="url(#1aaeb9969e)"><path fill="#2d5a27" d="M 305.996094 152.183594 L 292.617188 186.871094 L 327.304688 200.253906 L 340.683594 165.5625 Z M 305.996094 152.183594 " fill-opacity="1" fill-rule="nonzero"/></g></g></g></g><g transform="matrix(1, 0, 0, 1, 40, 60)"><g clip-path="url(#92a6b86ccc)"><g fill="#ffffff" fill-opacity="1"><g transform="translate(16.3803, 85.486457)"><g><path d="M -7.953125 -53 C -9.191406 -53.269531 -10.203125 -54.019531 -10.984375 -55.25 C -11.773438 -56.488281 -12.25 -57.945312 -12.40625 -59.625 C -12.570312 -61.3125 -12.332031 -62.929688 -11.6875 -64.484375 C -11.039062 -66.035156 -9.875 -67.253906 -8.1875 -68.140625 C -6.957031 -68.785156 -5.726562 -69.296875 -4.5 -69.671875 C -3.269531 -70.046875 -1.53125 -70.488281 0.71875 -71 C 1.550781 -71.1875 2.488281 -71.398438 3.53125 -71.640625 C 4.570312 -71.878906 5.71875 -72.140625 6.96875 -72.421875 C 8.519531 -72.773438 10.066406 -73.140625 11.609375 -73.515625 C 13.148438 -73.898438 14.515625 -74.222656 15.703125 -74.484375 C 16.535156 -74.679688 17.351562 -74.867188 18.15625 -75.046875 C 18.96875 -75.234375 19.726562 -75.40625 20.4375 -75.5625 C 23.175781 -76.175781 25.476562 -76.628906 27.34375 -76.921875 C 29.21875 -77.222656 30.898438 -77.265625 32.390625 -77.046875 C 34.273438 -76.710938 35.765625 -75.859375 36.859375 -74.484375 C 37.953125 -73.109375 38.644531 -71.5625 38.9375 -69.84375 C 39.238281 -68.125 39.0625 -66.550781 38.40625 -65.125 C 37.757812 -63.695312 36.632812 -62.800781 35.03125 -62.4375 C 33.25 -62.03125 31.566406 -61.882812 29.984375 -62 C 28.398438 -62.113281 27.007812 -62.035156 25.8125 -61.765625 C 24.507812 -61.472656 23.550781 -60.597656 22.9375 -59.140625 C 22.320312 -57.691406 22.210938 -54.972656 22.609375 -50.984375 C 22.929688 -47.941406 23.765625 -45.101562 25.109375 -42.46875 C 26.453125 -39.832031 28.035156 -37.328125 29.859375 -34.953125 C 31.679688 -32.578125 33.484375 -30.195312 35.265625 -27.8125 C 37.054688 -25.4375 38.5625 -22.953125 39.78125 -20.359375 C 40.15625 -19.503906 40.429688 -18.46875 40.609375 -17.25 C 40.796875 -16.039062 40.648438 -14.753906 40.171875 -13.390625 C 39.691406 -12.035156 38.738281 -10.789062 37.3125 -9.65625 C 35.882812 -8.519531 33.769531 -7.632812 30.96875 -7 L 22.21875 -5.03125 C 19.488281 -4.40625 17.222656 -4.546875 15.421875 -5.453125 C 13.617188 -6.359375 12.304688 -7.738281 11.484375 -9.59375 C 10.660156 -11.445312 10.300781 -13.378906 10.40625 -15.390625 C 10.65625 -19.828125 10.816406 -24.148438 10.890625 -28.359375 C 10.972656 -32.566406 10.96875 -36.316406 10.875 -39.609375 C 10.789062 -42.910156 10.546875 -45.300781 10.140625 -46.78125 C 9.398438 -49.789062 8.582031 -52.035156 7.6875 -53.515625 C 6.789062 -55.003906 5.859375 -55.953125 4.890625 -56.359375 C 3.921875 -56.765625 2.898438 -56.847656 1.828125 -56.609375 C 0.523438 -56.304688 -0.820312 -55.703125 -2.21875 -54.796875 C -3.613281 -53.890625 -4.9375 -53.296875 -6.1875 -53.015625 C -6.832031 -52.867188 -7.421875 -52.863281 -7.953125 -53 Z M -7.953125 -53 "/></g></g></g><g fill="#ffffff" fill-opacity="1"><g transform="translate(64.104838, 74.668072)"><g><path d="M 5.71875 -11.125 C 4.488281 -14.945312 3.734375 -19.054688 3.453125 -23.453125 C 3.179688 -27.847656 3.304688 -32.242188 3.828125 -36.640625 C 4.347656 -41.046875 5.21875 -45.21875 6.4375 -49.15625 C 7.664062 -53.09375 9.15625 -56.5 10.90625 -59.375 C 11.882812 -60.945312 13.15625 -62.375 14.71875 -63.65625 C 16.289062 -64.945312 18.003906 -65.953125 19.859375 -66.671875 C 21.722656 -67.390625 23.566406 -67.675781 25.390625 -67.53125 C 26.054688 -67.476562 26.476562 -67.445312 26.65625 -67.4375 C 26.84375 -67.425781 27.023438 -67.410156 27.203125 -67.390625 C 27.390625 -67.378906 27.820312 -67.347656 28.5 -67.296875 C 31.59375 -67.054688 34.242188 -66.359375 36.453125 -65.203125 C 38.660156 -64.046875 40.265625 -62.632812 41.265625 -60.96875 C 42.265625 -59.3125 42.425781 -57.625 41.75 -55.90625 C 41.351562 -54.769531 40.53125 -54.0625 39.28125 -53.78125 C 38.039062 -53.507812 36.628906 -53.4375 35.046875 -53.5625 C 33.890625 -53.644531 32.753906 -53.773438 31.640625 -53.953125 C 30.523438 -54.140625 29.476562 -54.269531 28.5 -54.34375 C 27.65625 -54.40625 26.9375 -54.382812 26.34375 -54.28125 C 25.757812 -54.175781 25.445312 -53.882812 25.40625 -53.40625 C 25.28125 -52.613281 25.753906 -52.035156 26.828125 -51.671875 C 27.898438 -51.316406 29.21875 -51.003906 30.78125 -50.734375 C 32.351562 -50.460938 33.929688 -50.078125 35.515625 -49.578125 C 37.109375 -49.085938 38.414062 -48.316406 39.4375 -47.265625 C 40.457031 -46.210938 40.894531 -44.707031 40.75 -42.75 C 40.613281 -41.113281 40.132812 -39.941406 39.3125 -39.234375 C 38.488281 -38.535156 37.445312 -38.109375 36.1875 -37.953125 C 34.925781 -37.804688 33.625 -37.800781 32.28125 -37.9375 C 30.945312 -38.070312 29.65625 -38.15625 28.40625 -38.1875 C 27.15625 -38.226562 26.128906 -38.050781 25.328125 -37.65625 C 24.535156 -37.257812 24.097656 -36.484375 24.015625 -35.328125 C 23.835938 -33.078125 24.484375 -31.1875 25.953125 -29.65625 C 27.429688 -28.132812 29.570312 -27.269531 32.375 -27.0625 C 32.613281 -27.039062 32.867188 -27.019531 33.140625 -27 C 33.421875 -26.976562 33.679688 -26.988281 33.921875 -27.03125 C 34.046875 -27.019531 34.195312 -27.007812 34.375 -27 C 34.5625 -26.988281 34.71875 -26.976562 34.84375 -26.96875 C 37.15625 -26.789062 39.046875 -25.925781 40.515625 -24.375 C 41.984375 -22.820312 43 -20.90625 43.5625 -18.625 C 44.125 -16.34375 44.226562 -13.945312 43.875 -11.4375 C 43.53125 -8.9375 42.695312 -6.617188 41.375 -4.484375 C 40.050781 -2.347656 38.238281 -0.648438 35.9375 0.609375 C 33.632812 1.867188 30.78125 2.367188 27.375 2.109375 L 18.875 1.453125 C 17.363281 1.335938 15.71875 0.707031 13.9375 -0.4375 C 12.164062 -1.582031 10.535156 -3.082031 9.046875 -4.9375 C 7.566406 -6.789062 6.457031 -8.851562 5.71875 -11.125 Z M 5.71875 -11.125 "/></g></g></g></g></g><g transform="matrix(1, 0, 0, 1, 139, 46)"><g clip-path="url(#72c9e4f120)"><g fill="#ffffff" fill-opacity="1"><g transform="translate(16.862312, 93.907663)"><g><path d="M 14.921875 1.703125 C 11.640625 1.328125 9.085938 0.640625 7.265625 -0.359375 C 5.441406 -1.367188 4.160156 -2.539062 3.421875 -3.875 C 2.691406 -5.21875 2.289062 -6.632812 2.21875 -8.125 C 2.15625 -9.613281 2.195312 -10.992188 2.34375 -12.265625 C 2.582031 -14.378906 3.078125 -16.578125 3.828125 -18.859375 C 4.578125 -21.148438 5.390625 -23.453125 6.265625 -25.765625 C 7.140625 -28.085938 7.859375 -30.320312 8.421875 -32.46875 C 8.992188 -34.75 9.347656 -37.15625 9.484375 -39.6875 C 9.617188 -42.21875 9.695312 -44.675781 9.71875 -47.0625 C 9.757812 -47.96875 9.785156 -49.296875 9.796875 -51.046875 C 9.816406 -52.796875 9.9375 -54.65625 10.15625 -56.625 C 10.382812 -58.601562 10.800781 -60.460938 11.40625 -62.203125 C 12.007812 -63.953125 12.90625 -65.335938 14.09375 -66.359375 C 15.289062 -67.390625 16.828125 -67.800781 18.703125 -67.59375 C 19.921875 -67.445312 21.101562 -67.0625 22.25 -66.4375 C 23.40625 -65.820312 24.140625 -65.492188 24.453125 -65.453125 C 24.878906 -65.410156 25.378906 -65.476562 25.953125 -65.65625 C 26.523438 -65.832031 27.441406 -65.96875 28.703125 -66.0625 C 29.972656 -66.164062 31.796875 -66.082031 34.171875 -65.8125 C 36.410156 -65.5625 38.707031 -64.882812 41.0625 -63.78125 C 43.425781 -62.675781 45.53125 -61.050781 47.375 -58.90625 C 49.21875 -56.769531 50.539062 -54.007812 51.34375 -50.625 C 52.15625 -47.25 52.132812 -43.148438 51.28125 -38.328125 C 50.644531 -34.910156 49.425781 -31.921875 47.625 -29.359375 C 45.832031 -26.796875 43.265625 -25.15625 39.921875 -24.4375 C 41.796875 -23.664062 43.800781 -22.546875 45.9375 -21.078125 C 48.070312 -19.609375 50.003906 -17.835938 51.734375 -15.765625 C 53.460938 -13.691406 54.757812 -11.359375 55.625 -8.765625 C 56.5 -6.179688 56.640625 -3.382812 56.046875 -0.375 C 55.609375 1.769531 54.6875 3.238281 53.28125 4.03125 C 51.882812 4.820312 50.335938 5.226562 48.640625 5.25 C 46.941406 5.269531 45.398438 5.203125 44.015625 5.046875 C 41.523438 4.765625 39.613281 4.238281 38.28125 3.46875 C 36.957031 2.707031 36.019531 1.769531 35.46875 0.65625 C 34.925781 -0.445312 34.539062 -1.625 34.3125 -2.875 C 34.09375 -4.6875 33.644531 -6.78125 32.96875 -9.15625 C 32.289062 -11.539062 31.53125 -13.882812 30.6875 -16.1875 C 29.851562 -18.488281 29.03125 -20.410156 28.21875 -21.953125 C 27.40625 -23.503906 26.726562 -24.3125 26.1875 -24.375 C 25.9375 -24.394531 25.769531 -24.285156 25.6875 -24.046875 C 25.300781 -23.347656 25.3125 -22.484375 25.71875 -21.453125 C 26.125 -20.429688 26.644531 -19.222656 27.28125 -17.828125 C 27.914062 -16.441406 28.472656 -14.890625 28.953125 -13.171875 C 29.429688 -11.453125 29.554688 -9.5625 29.328125 -7.5 C 29.179688 -5.675781 28.617188 -3.992188 27.640625 -2.453125 C 26.660156 -0.910156 25.15625 0.265625 23.125 1.078125 C 21.101562 1.890625 18.367188 2.097656 14.921875 1.703125 Z M 33.09375 -56.4375 C 32.1875 -56.488281 31.441406 -56.019531 30.859375 -55.03125 C 30.285156 -54.050781 29.894531 -52.820312 29.6875 -51.34375 C 29.488281 -49.863281 29.472656 -48.375 29.640625 -46.875 C 29.816406 -45.382812 30.207031 -44.097656 30.8125 -43.015625 C 31.425781 -41.941406 32.28125 -41.335938 33.375 -41.203125 C 33.675781 -41.171875 33.921875 -41.175781 34.109375 -41.21875 C 35.796875 -41.394531 36.925781 -42.273438 37.5 -43.859375 C 38.082031 -45.453125 38.238281 -47.191406 37.96875 -49.078125 C 37.738281 -50.878906 37.203125 -52.515625 36.359375 -53.984375 C 35.515625 -55.460938 34.515625 -56.269531 33.359375 -56.40625 C 33.296875 -56.414062 33.25 -56.421875 33.21875 -56.421875 C 33.195312 -56.421875 33.15625 -56.425781 33.09375 -56.4375 Z M 33.09375 -56.4375 "/></g></g></g><g fill="#ffffff" fill-opacity="1"><g transform="translate(78.104455, 100.290825)"><g><path d="M 14.875 -2.0625 C 11.601562 -1.613281 8.957031 -1.648438 6.9375 -2.171875 C 4.925781 -2.691406 3.394531 -3.503906 2.34375 -4.609375 C 1.300781 -5.722656 0.554688 -6.992188 0.109375 -8.421875 C -0.328125 -9.847656 -0.632812 -11.191406 -0.8125 -12.453125 C -1.101562 -14.566406 -1.164062 -16.820312 -1 -19.21875 C -0.84375 -21.613281 -0.628906 -24.046875 -0.359375 -26.515625 C -0.0976562 -28.984375 0.0351562 -31.328125 0.046875 -33.546875 C 0.0351562 -35.890625 -0.21875 -38.300781 -0.71875 -40.78125 C -1.21875 -43.269531 -1.757812 -45.675781 -2.34375 -48 C -2.53125 -48.894531 -2.832031 -50.191406 -3.25 -51.890625 C -3.664062 -53.585938 -4.007812 -55.414062 -4.28125 -57.375 C -4.550781 -59.34375 -4.613281 -61.242188 -4.46875 -63.078125 C -4.332031 -64.921875 -3.8125 -66.488281 -2.90625 -67.78125 C -2.007812 -69.082031 -0.625 -69.863281 1.25 -70.125 C 2.457031 -70.289062 3.695312 -70.210938 4.96875 -69.890625 C 6.25 -69.578125 7.046875 -69.441406 7.359375 -69.484375 C 7.773438 -69.546875 8.234375 -69.734375 8.734375 -70.046875 C 9.242188 -70.359375 10.101562 -70.722656 11.3125 -71.140625 C 12.519531 -71.554688 14.304688 -71.929688 16.671875 -72.265625 C 18.898438 -72.578125 21.289062 -72.492188 23.84375 -72.015625 C 26.40625 -71.535156 28.847656 -70.488281 31.171875 -68.875 C 33.492188 -67.257812 35.46875 -64.914062 37.09375 -61.84375 C 38.71875 -58.769531 39.71875 -54.789062 40.09375 -49.90625 C 40.332031 -46.4375 39.898438 -43.238281 38.796875 -40.3125 C 37.703125 -37.382812 35.625 -35.15625 32.5625 -33.625 C 34.570312 -33.351562 36.796875 -32.769531 39.234375 -31.875 C 41.671875 -30.976562 43.984375 -29.742188 46.171875 -28.171875 C 48.359375 -26.609375 50.191406 -24.675781 51.671875 -22.375 C 53.160156 -20.082031 53.992188 -17.410156 54.171875 -14.359375 C 54.285156 -12.171875 53.757812 -10.515625 52.59375 -9.390625 C 51.4375 -8.273438 50.039062 -7.492188 48.40625 -7.046875 C 46.769531 -6.609375 45.257812 -6.289062 43.875 -6.09375 C 41.394531 -5.75 39.414062 -5.78125 37.9375 -6.1875 C 36.46875 -6.601562 35.328125 -7.273438 34.515625 -8.203125 C 33.710938 -9.140625 33.039062 -10.1875 32.5 -11.34375 C 31.84375 -13.039062 30.890625 -14.957031 29.640625 -17.09375 C 28.390625 -19.238281 27.070312 -21.320312 25.6875 -23.34375 C 24.300781 -25.363281 23.019531 -27.015625 21.84375 -28.296875 C 20.675781 -29.585938 19.828125 -30.195312 19.296875 -30.125 C 19.046875 -30.082031 18.90625 -29.941406 18.875 -29.703125 C 18.664062 -28.929688 18.882812 -28.09375 19.53125 -27.1875 C 20.1875 -26.289062 21 -25.25 21.96875 -24.0625 C 22.9375 -22.882812 23.867188 -21.523438 24.765625 -19.984375 C 25.660156 -18.441406 26.25 -16.640625 26.53125 -14.578125 C 26.84375 -12.773438 26.71875 -11.003906 26.15625 -9.265625 C 25.59375 -7.523438 24.429688 -6.007812 22.671875 -4.71875 C 20.910156 -3.425781 18.3125 -2.539062 14.875 -2.0625 Z M 17.96875 -62.921875 C 17.070312 -62.742188 16.46875 -62.101562 16.15625 -61 C 15.84375 -59.90625 15.773438 -58.613281 15.953125 -57.125 C 16.128906 -55.644531 16.484375 -54.203125 17.015625 -52.796875 C 17.546875 -51.398438 18.242188 -50.253906 19.109375 -49.359375 C 19.972656 -48.460938 20.953125 -48.09375 22.046875 -48.25 C 22.335938 -48.289062 22.566406 -48.351562 22.734375 -48.4375 C 24.328125 -49.019531 25.207031 -50.148438 25.375 -51.828125 C 25.539062 -53.515625 25.25 -55.238281 24.5 -57 C 23.84375 -58.6875 22.921875 -60.140625 21.734375 -61.359375 C 20.554688 -62.585938 19.390625 -63.117188 18.234375 -62.953125 C 18.171875 -62.953125 18.125 -62.945312 18.09375 -62.9375 C 18.070312 -62.9375 18.03125 -62.929688 17.96875 -62.921875 Z M 17.96875 -62.921875 "/></g></g></g><g fill="#ffffff" fill-opacity="1"><g transform="translate(139.030823, 91.207772)"><g><path d="M 6.84375 -2.828125 C 5.21875 -2.148438 3.828125 -1.96875 2.671875 -2.28125 C 1.515625 -2.601562 0.570312 -3.222656 -0.15625 -4.140625 C -0.894531 -5.054688 -1.484375 -6.066406 -1.921875 -7.171875 C -2.359375 -8.285156 -2.648438 -9.269531 -2.796875 -10.125 C -3.484375 -13.550781 -3.765625 -17.066406 -3.640625 -20.671875 C -3.515625 -24.285156 -3.5625 -27.800781 -3.78125 -31.21875 C -3.988281 -33.96875 -4.25 -36.644531 -4.5625 -39.25 C -4.875 -41.863281 -5.164062 -44.53125 -5.4375 -47.25 C -5.53125 -47.945312 -5.703125 -49.28125 -5.953125 -51.25 C -6.203125 -53.226562 -6.394531 -55.503906 -6.53125 -58.078125 C -6.675781 -60.660156 -6.597656 -63.1875 -6.296875 -65.65625 C -6.003906 -68.125 -5.304688 -70.179688 -4.203125 -71.828125 C -3.398438 -73.085938 -2.148438 -74.066406 -0.453125 -74.765625 C 0.785156 -75.273438 2.082031 -75.523438 3.4375 -75.515625 C 4.789062 -75.515625 5.953125 -75.15625 6.921875 -74.4375 C 10.679688 -71.882812 13.925781 -68.847656 16.65625 -65.328125 C 19.382812 -61.816406 22.21875 -58.351562 25.15625 -54.9375 C 26.6875 -53.125 28.578125 -51.210938 30.828125 -49.203125 C 33.078125 -47.191406 35.347656 -45.160156 37.640625 -43.109375 C 39.941406 -41.054688 42.007812 -39.003906 43.84375 -36.953125 C 45.675781 -34.898438 47.019531 -32.925781 47.875 -31.03125 C 48.507812 -29.65625 48.96875 -28.148438 49.25 -26.515625 C 49.53125 -24.878906 49.484375 -23.390625 49.109375 -22.046875 C 48.742188 -20.703125 47.851562 -19.738281 46.4375 -19.15625 L 34.34375 -14.171875 C 32.988281 -13.609375 31.675781 -13.820312 30.40625 -14.8125 C 29.132812 -15.8125 27.9375 -17.28125 26.8125 -19.21875 C 25.6875 -21.164062 24.632812 -23.320312 23.65625 -25.6875 C 22.675781 -28.0625 21.816406 -30.347656 21.078125 -32.546875 C 20.335938 -34.742188 19.738281 -36.59375 19.28125 -38.09375 C 18.820312 -39.59375 18.519531 -40.441406 18.375 -40.640625 C 18.082031 -41.054688 17.519531 -41.222656 16.6875 -41.140625 C 15.851562 -41.054688 14.960938 -40.820312 14.015625 -40.4375 C 13.046875 -40.039062 12.148438 -39.519531 11.328125 -38.875 C 10.503906 -38.238281 10.066406 -37.582031 10.015625 -36.90625 C 10.003906 -36.769531 10.46875 -36.085938 11.40625 -34.859375 C 12.34375 -33.628906 13.503906 -32.046875 14.890625 -30.109375 C 16.285156 -28.179688 17.632812 -26.113281 18.9375 -23.90625 C 20.25 -21.707031 21.289062 -19.546875 22.0625 -17.421875 C 22.84375 -15.296875 23.097656 -13.398438 22.828125 -11.734375 C 22.554688 -10.078125 21.519531 -8.878906 19.71875 -8.140625 Z M 3.53125 -64.609375 C 2.738281 -64.148438 2.273438 -63.234375 2.140625 -61.859375 C 2.015625 -60.492188 2.132812 -58.960938 2.5 -57.265625 C 2.875 -55.578125 3.328125 -54 3.859375 -52.53125 C 4.398438 -51.0625 4.894531 -50.03125 5.34375 -49.4375 C 5.769531 -48.875 6.40625 -48.566406 7.25 -48.515625 C 8.09375 -48.472656 8.941406 -48.628906 9.796875 -48.984375 C 10.742188 -49.378906 11.582031 -49.972656 12.3125 -50.765625 C 13.039062 -51.554688 13.335938 -52.359375 13.203125 -53.171875 C 13.097656 -53.910156 12.671875 -54.984375 11.921875 -56.390625 C 11.179688 -57.804688 10.285156 -59.222656 9.234375 -60.640625 C 8.191406 -62.054688 7.148438 -63.175781 6.109375 -64 C 5.078125 -64.832031 4.21875 -65.035156 3.53125 -64.609375 Z M 3.53125 -64.609375 "/></g></g></g></g></g><g transform="matrix(1, 0, 0, 1, 152, 152)"><g clip-path="url(#e6206a41e0)"><g fill="#ffffff" fill-opacity="1"><g transform="translate(7.009271, 11.032279)"><g><path d="M 2.875 6.15625 C 2.382812 5.15625 2.171875 4.125 2.234375 3.0625 C 2.296875 2 2.628906 1.019531 3.234375 0.125 C 3.847656 -0.757812 4.679688 -1.460938 5.734375 -1.984375 C 6.785156 -2.503906 7.847656 -2.726562 8.921875 -2.65625 C 10.003906 -2.59375 10.984375 -2.257812 11.859375 -1.65625 C 12.734375 -1.0625 13.414062 -0.265625 13.90625 0.734375 C 14.40625 1.742188 14.625 2.773438 14.5625 3.828125 C 14.5 4.878906 14.164062 5.847656 13.5625 6.734375 C 12.957031 7.628906 12.125 8.335938 11.0625 8.859375 C 10 9.378906 8.929688 9.601562 7.859375 9.53125 C 6.785156 9.46875 5.8125 9.140625 4.9375 8.546875 C 4.0625 7.960938 3.375 7.164062 2.875 6.15625 Z M 4.109375 5.546875 C 4.484375 6.296875 4.992188 6.882812 5.640625 7.3125 C 6.285156 7.75 7.019531 7.976562 7.84375 8 C 8.664062 8.019531 9.503906 7.820312 10.359375 7.40625 C 11.222656 6.976562 11.894531 6.429688 12.375 5.765625 C 12.851562 5.109375 13.117188 4.394531 13.171875 3.625 C 13.222656 2.851562 13.0625 2.085938 12.6875 1.328125 C 12.3125 0.554688 11.800781 -0.0390625 11.15625 -0.46875 C 10.519531 -0.894531 9.789062 -1.117188 8.96875 -1.140625 C 8.144531 -1.171875 7.300781 -0.972656 6.4375 -0.546875 C 5.582031 -0.128906 4.914062 0.410156 4.4375 1.078125 C 3.957031 1.742188 3.691406 2.46875 3.640625 3.25 C 3.585938 4.03125 3.742188 4.796875 4.109375 5.546875 Z M 4.109375 5.546875 "/></g></g></g><g fill="#ffffff" fill-opacity="1"><g transform="translate(13.983916, 24.107036)"><g><path d="M 8.03125 -2.578125 C 8.625 -2.703125 9.195312 -2.648438 9.75 -2.421875 C 10.3125 -2.203125 10.816406 -1.800781 11.265625 -1.21875 L 9.984375 -0.21875 L 9.734375 -0.546875 C 8.648438 -1.929688 7.351562 -2.035156 5.84375 -0.859375 L 1.78125 2.296875 L 0.8125 1.046875 L 8.28125 -4.765625 L 9.25 -3.515625 Z M 8.03125 -2.578125 "/></g></g></g><g fill="#ffffff" fill-opacity="1"><g transform="translate(18.570439, 30.217095)"><g><path d="M 10.28125 -3.734375 C 10.894531 -3.203125 11.316406 -2.597656 11.546875 -1.921875 C 11.773438 -1.242188 11.816406 -0.609375 11.671875 -0.015625 L 12.828125 -1.3125 L 14.015625 -0.25 L 7.609375 7 C 7.035156 7.644531 6.390625 8.097656 5.671875 8.359375 C 4.953125 8.617188 4.210938 8.660156 3.453125 8.484375 C 2.691406 8.316406 1.96875 7.929688 1.28125 7.328125 C 0.351562 6.503906 -0.226562 5.597656 -0.46875 4.609375 C -0.707031 3.628906 -0.539062 2.710938 0.03125 1.859375 L 1.1875 2.875 C 0.9375 3.4375 0.894531 4.023438 1.0625 4.640625 C 1.226562 5.253906 1.597656 5.8125 2.171875 6.3125 C 2.816406 6.882812 3.523438 7.144531 4.296875 7.09375 C 5.066406 7.050781 5.773438 6.664062 6.421875 5.9375 L 7.734375 4.453125 C 7.128906 4.660156 6.476562 4.695312 5.78125 4.5625 C 5.082031 4.4375 4.425781 4.109375 3.8125 3.578125 C 3.175781 3.015625 2.738281 2.351562 2.5 1.59375 C 2.269531 0.832031 2.253906 0.046875 2.453125 -0.765625 C 2.660156 -1.585938 3.082031 -2.359375 3.71875 -3.078125 C 4.351562 -3.796875 5.054688 -4.300781 5.828125 -4.59375 C 6.609375 -4.882812 7.382812 -4.953125 8.15625 -4.796875 C 8.9375 -4.648438 9.644531 -4.296875 10.28125 -3.734375 Z M 9.703125 2.21875 C 10.171875 1.6875 10.472656 1.128906 10.609375 0.546875 C 10.753906 -0.0351562 10.734375 -0.59375 10.546875 -1.125 C 10.359375 -1.664062 10.046875 -2.128906 9.609375 -2.515625 C 9.160156 -2.910156 8.664062 -3.160156 8.125 -3.265625 C 7.582031 -3.378906 7.023438 -3.332031 6.453125 -3.125 C 5.890625 -2.925781 5.375 -2.5625 4.90625 -2.03125 C 4.414062 -1.476562 4.101562 -0.90625 3.96875 -0.3125 C 3.84375 0.269531 3.863281 0.828125 4.03125 1.359375 C 4.207031 1.898438 4.519531 2.367188 4.96875 2.765625 C 5.40625 3.148438 5.898438 3.394531 6.453125 3.5 C 7.015625 3.601562 7.578125 3.550781 8.140625 3.34375 C 8.703125 3.132812 9.222656 2.757812 9.703125 2.21875 Z M 9.703125 2.21875 "/></g></g></g><g fill="#ffffff" fill-opacity="1"><g transform="translate(28.540681, 38.777872)"><g><path d="M 2.875 -3.875 C 3.320312 -4.726562 3.890625 -5.382812 4.578125 -5.84375 C 5.265625 -6.3125 6.003906 -6.5625 6.796875 -6.59375 C 7.585938 -6.632812 8.359375 -6.457031 9.109375 -6.0625 C 9.828125 -5.675781 10.378906 -5.179688 10.765625 -4.578125 C 11.148438 -3.984375 11.34375 -3.378906 11.34375 -2.765625 L 12.15625 -4.296875 L 13.5625 -3.5625 L 9.15625 4.8125 L 7.75 4.078125 L 8.578125 2.515625 C 8.035156 2.859375 7.40625 3.046875 6.6875 3.078125 C 5.976562 3.117188 5.265625 2.945312 4.546875 2.5625 C 3.796875 2.175781 3.21875 1.640625 2.8125 0.953125 C 2.414062 0.265625 2.210938 -0.5 2.203125 -1.34375 C 2.203125 -2.1875 2.425781 -3.03125 2.875 -3.875 Z M 9.953125 -0.125 C 10.285156 -0.75 10.445312 -1.363281 10.4375 -1.96875 C 10.4375 -2.582031 10.285156 -3.125 9.984375 -3.59375 C 9.679688 -4.070312 9.269531 -4.445312 8.75 -4.71875 C 8.226562 -4.988281 7.6875 -5.113281 7.125 -5.09375 C 6.570312 -5.070312 6.046875 -4.894531 5.546875 -4.5625 C 5.046875 -4.226562 4.628906 -3.75 4.296875 -3.125 C 3.953125 -2.476562 3.785156 -1.851562 3.796875 -1.25 C 3.804688 -0.644531 3.957031 -0.101562 4.25 0.375 C 4.539062 0.851562 4.945312 1.226562 5.46875 1.5 C 5.988281 1.769531 6.53125 1.890625 7.09375 1.859375 C 7.664062 1.835938 8.203125 1.660156 8.703125 1.328125 C 9.203125 0.992188 9.617188 0.507812 9.953125 -0.125 Z M 9.953125 -0.125 "/></g></g></g><g fill="#ffffff" fill-opacity="1"><g transform="translate(40.230122, 44.695769)"><g><path d="M 8.15625 -7.859375 C 9.28125 -7.578125 10.097656 -7.007812 10.609375 -6.15625 C 11.117188 -5.300781 11.210938 -4.238281 10.890625 -2.96875 L 9.5 2.4375 L 7.984375 2.046875 L 9.3125 -3.140625 C 9.550781 -4.046875 9.503906 -4.796875 9.171875 -5.390625 C 8.847656 -5.992188 8.289062 -6.398438 7.5 -6.609375 C 6.695312 -6.804688 5.992188 -6.71875 5.390625 -6.34375 C 4.785156 -5.96875 4.359375 -5.300781 4.109375 -4.34375 L 2.8125 0.71875 L 1.28125 0.328125 L 3.640625 -8.84375 L 5.171875 -8.453125 L 4.828125 -7.140625 C 5.242188 -7.523438 5.742188 -7.78125 6.328125 -7.90625 C 6.921875 -8.039062 7.53125 -8.023438 8.15625 -7.859375 Z M 8.15625 -7.859375 "/></g></g></g><g fill="#ffffff" fill-opacity="1"><g transform="translate(51.98491, 47.356888)"><g><path d="M 3.15625 -10.75 C 2.863281 -10.78125 2.625 -10.910156 2.4375 -11.140625 C 2.257812 -11.367188 2.179688 -11.628906 2.203125 -11.921875 C 2.234375 -12.210938 2.359375 -12.453125 2.578125 -12.640625 C 2.804688 -12.828125 3.066406 -12.90625 3.359375 -12.875 C 3.648438 -12.851562 3.882812 -12.726562 4.0625 -12.5 C 4.238281 -12.269531 4.3125 -12.007812 4.28125 -11.71875 C 4.257812 -11.425781 4.140625 -11.1875 3.921875 -11 C 3.703125 -10.8125 3.445312 -10.726562 3.15625 -10.75 Z M 3.78125 -9.15625 L 2.890625 0.265625 L 1.328125 0.125 L 2.21875 -9.296875 Z M 3.78125 -9.15625 "/></g></g></g><g fill="#ffffff" fill-opacity="1"><g transform="translate(57.200944, 48.008622)"><g><path d="M 0.46875 -4.78125 C 0.414062 -5.757812 0.5625 -6.625 0.90625 -7.375 C 1.257812 -8.125 1.769531 -8.71875 2.4375 -9.15625 C 3.101562 -9.601562 3.882812 -9.851562 4.78125 -9.90625 C 5.9375 -9.96875 6.90625 -9.738281 7.6875 -9.21875 C 8.476562 -8.707031 9.023438 -7.957031 9.328125 -6.96875 L 7.640625 -6.875 C 7.441406 -7.4375 7.097656 -7.867188 6.609375 -8.171875 C 6.128906 -8.484375 5.546875 -8.617188 4.859375 -8.578125 C 3.960938 -8.523438 3.253906 -8.175781 2.734375 -7.53125 C 2.222656 -6.882812 2 -6 2.0625 -4.875 C 2.132812 -3.738281 2.460938 -2.875 3.046875 -2.28125 C 3.640625 -1.695312 4.382812 -1.429688 5.28125 -1.484375 C 5.96875 -1.523438 6.53125 -1.71875 6.96875 -2.0625 C 7.40625 -2.414062 7.695312 -2.894531 7.84375 -3.5 L 9.53125 -3.59375 C 9.332031 -2.625 8.867188 -1.820312 8.140625 -1.1875 C 7.421875 -0.5625 6.492188 -0.21875 5.359375 -0.15625 C 4.460938 -0.101562 3.65625 -0.253906 2.9375 -0.609375 C 2.21875 -0.972656 1.640625 -1.515625 1.203125 -2.234375 C 0.773438 -2.953125 0.53125 -3.800781 0.46875 -4.78125 Z M 0.46875 -4.78125 "/></g></g></g><g fill="#ffffff" fill-opacity="1"><g transform="translate(68.633257, 47.03397)"><g/></g></g><g fill="#ffffff" fill-opacity="1"><g transform="translate(74.075484, 45.943657)"><g><path d="M 4.421875 -1.484375 C 3.753906 -1.234375 3.109375 -1.125 2.484375 -1.15625 C 1.859375 -1.1875 1.3125 -1.347656 0.84375 -1.640625 C 0.375 -1.941406 0.0234375 -2.359375 -0.203125 -2.890625 L 1.3125 -3.453125 C 1.519531 -3.035156 1.859375 -2.75 2.328125 -2.59375 C 2.804688 -2.445312 3.347656 -2.488281 3.953125 -2.71875 C 4.523438 -2.925781 4.925781 -3.210938 5.15625 -3.578125 C 5.382812 -3.953125 5.429688 -4.332031 5.296875 -4.71875 C 5.148438 -5.09375 4.867188 -5.3125 4.453125 -5.375 C 4.035156 -5.4375 3.429688 -5.425781 2.640625 -5.34375 C 1.921875 -5.28125 1.316406 -5.253906 0.828125 -5.265625 C 0.347656 -5.285156 -0.101562 -5.414062 -0.53125 -5.65625 C -0.957031 -5.90625 -1.273438 -6.3125 -1.484375 -6.875 C -1.648438 -7.332031 -1.664062 -7.796875 -1.53125 -8.265625 C -1.40625 -8.742188 -1.132812 -9.1875 -0.71875 -9.59375 C -0.3125 -10.007812 0.207031 -10.332031 0.84375 -10.5625 C 1.832031 -10.9375 2.71875 -10.988281 3.5 -10.71875 C 4.289062 -10.445312 4.867188 -9.878906 5.234375 -9.015625 L 3.75 -8.46875 C 3.550781 -8.925781 3.226562 -9.234375 2.78125 -9.390625 C 2.34375 -9.546875 1.835938 -9.515625 1.265625 -9.296875 C 0.742188 -9.109375 0.367188 -8.84375 0.140625 -8.5 C -0.0859375 -8.15625 -0.132812 -7.796875 0 -7.421875 C 0.101562 -7.140625 0.28125 -6.9375 0.53125 -6.8125 C 0.789062 -6.695312 1.085938 -6.632812 1.421875 -6.625 C 1.753906 -6.625 2.195312 -6.644531 2.75 -6.6875 C 3.445312 -6.757812 4.023438 -6.78125 4.484375 -6.75 C 4.953125 -6.726562 5.390625 -6.601562 5.796875 -6.375 C 6.210938 -6.144531 6.523438 -5.769531 6.734375 -5.25 C 6.910156 -4.757812 6.9375 -4.269531 6.8125 -3.78125 C 6.6875 -3.289062 6.414062 -2.84375 6 -2.4375 C 5.59375 -2.039062 5.066406 -1.722656 4.421875 -1.484375 Z M 4.421875 -1.484375 "/></g></g></g><g fill="#ffffff" fill-opacity="1"><g transform="translate(83.728283, 42.332117)"><g><path d="M -0.015625 -11.359375 C 0.578125 -11.734375 1.195312 -11.945312 1.84375 -12 C 2.5 -12.0625 3.128906 -11.914062 3.734375 -11.5625 C 4.335938 -11.21875 4.875 -10.675781 5.34375 -9.9375 L 8.3125 -5.21875 L 6.984375 -4.390625 L 4.140625 -8.921875 C 3.640625 -9.722656 3.054688 -10.207031 2.390625 -10.375 C 1.734375 -10.550781 1.054688 -10.421875 0.359375 -9.984375 C -0.335938 -9.546875 -0.753906 -8.976562 -0.890625 -8.28125 C -1.035156 -7.582031 -0.84375 -6.816406 -0.3125 -5.984375 L 2.46875 -1.546875 L 1.125 -0.703125 L -5.671875 -11.53125 L -4.328125 -12.375 L -1.84375 -8.40625 C -1.851562 -8.976562 -1.695312 -9.519531 -1.375 -10.03125 C -1.050781 -10.550781 -0.597656 -10.992188 -0.015625 -11.359375 Z M -0.015625 -11.359375 "/></g></g></g><g fill="#ffffff" fill-opacity="1"><g transform="translate(94.184338, 35.576909)"><g><path d="M 3.953125 -3.75 C 3.328125 -3.125 2.617188 -2.695312 1.828125 -2.46875 C 1.046875 -2.238281 0.25 -2.242188 -0.5625 -2.484375 C -1.382812 -2.722656 -2.140625 -3.191406 -2.828125 -3.890625 C -3.515625 -4.566406 -3.972656 -5.3125 -4.203125 -6.125 C -4.441406 -6.945312 -4.445312 -7.753906 -4.21875 -8.546875 C -3.988281 -9.335938 -3.550781 -10.054688 -2.90625 -10.703125 C -2.269531 -11.335938 -1.554688 -11.769531 -0.765625 -12 C 0.0234375 -12.226562 0.828125 -12.234375 1.640625 -12.015625 C 2.460938 -11.796875 3.222656 -11.34375 3.921875 -10.65625 C 4.609375 -9.957031 5.0625 -9.191406 5.28125 -8.359375 C 5.507812 -7.535156 5.503906 -6.71875 5.265625 -5.90625 C 5.023438 -5.101562 4.585938 -4.382812 3.953125 -3.75 Z M 2.984375 -4.71875 C 3.378906 -5.113281 3.660156 -5.582031 3.828125 -6.125 C 3.992188 -6.664062 3.992188 -7.234375 3.828125 -7.828125 C 3.660156 -8.421875 3.3125 -8.988281 2.78125 -9.53125 C 2.238281 -10.0625 1.671875 -10.398438 1.078125 -10.546875 C 0.492188 -10.703125 -0.0546875 -10.703125 -0.578125 -10.546875 C -1.097656 -10.398438 -1.5625 -10.125 -1.96875 -9.71875 C -2.363281 -9.3125 -2.640625 -8.847656 -2.796875 -8.328125 C -2.953125 -7.804688 -2.941406 -7.253906 -2.765625 -6.671875 C -2.597656 -6.097656 -2.242188 -5.546875 -1.703125 -5.015625 C -1.160156 -4.460938 -0.601562 -4.097656 -0.03125 -3.921875 C 0.539062 -3.742188 1.085938 -3.734375 1.609375 -3.890625 C 2.128906 -4.046875 2.585938 -4.320312 2.984375 -4.71875 Z M 2.984375 -4.71875 "/></g></g></g><g fill="#ffffff" fill-opacity="1"><g transform="translate(102.832914, 26.65373)"><g><path d="M 0.984375 -11.140625 C 1.242188 -10.984375 1.503906 -10.800781 1.765625 -10.59375 L -2.25 -4.1875 C -1.4375 -3.75 -0.65625 -3.632812 0.09375 -3.84375 C 0.84375 -4.050781 1.441406 -4.507812 1.890625 -5.21875 C 2.242188 -5.789062 2.40625 -6.351562 2.375 -6.90625 C 2.351562 -7.457031 2.171875 -7.953125 1.828125 -8.390625 L 2.71875 -9.8125 C 3.363281 -9.125 3.722656 -8.304688 3.796875 -7.359375 C 3.867188 -6.410156 3.609375 -5.460938 3.015625 -4.515625 C 2.535156 -3.753906 1.9375 -3.179688 1.21875 -2.796875 C 0.5 -2.410156 -0.273438 -2.242188 -1.109375 -2.296875 C -1.953125 -2.359375 -2.785156 -2.648438 -3.609375 -3.171875 C -4.441406 -3.691406 -5.066406 -4.3125 -5.484375 -5.03125 C -5.898438 -5.75 -6.085938 -6.507812 -6.046875 -7.3125 C -6.003906 -8.125 -5.738281 -8.921875 -5.25 -9.703125 C -4.78125 -10.460938 -4.191406 -11.03125 -3.484375 -11.40625 C -2.785156 -11.78125 -2.046875 -11.945312 -1.265625 -11.90625 C -0.492188 -11.863281 0.253906 -11.609375 0.984375 -11.140625 Z M -0.15625 -9.953125 C -0.65625 -10.265625 -1.15625 -10.421875 -1.65625 -10.421875 C -2.164062 -10.429688 -2.632812 -10.300781 -3.0625 -10.03125 C -3.5 -9.769531 -3.867188 -9.40625 -4.171875 -8.9375 C -4.597656 -8.257812 -4.742188 -7.550781 -4.609375 -6.8125 C -4.472656 -6.070312 -4.050781 -5.429688 -3.34375 -4.890625 Z M -0.15625 -9.953125 "/></g></g></g><g fill="#ffffff" fill-opacity="1"><g transform="translate(109.017464, 16.419169)"><g><path d="M 1.78125 -4.3125 C 1.53125 -3.632812 1.1875 -3.066406 0.75 -2.609375 C 0.3125 -2.160156 -0.171875 -1.859375 -0.703125 -1.703125 C -1.234375 -1.554688 -1.773438 -1.566406 -2.328125 -1.734375 L -1.75 -3.25 C -1.300781 -3.132812 -0.863281 -3.207031 -0.4375 -3.46875 C -0.0078125 -3.726562 0.316406 -4.160156 0.546875 -4.765625 C 0.753906 -5.328125 0.789062 -5.816406 0.65625 -6.234375 C 0.53125 -6.648438 0.273438 -6.929688 -0.109375 -7.078125 C -0.484375 -7.222656 -0.832031 -7.15625 -1.15625 -6.875 C -1.476562 -6.601562 -1.863281 -6.140625 -2.3125 -5.484375 C -2.726562 -4.898438 -3.101562 -4.429688 -3.4375 -4.078125 C -3.769531 -3.734375 -4.164062 -3.476562 -4.625 -3.3125 C -5.09375 -3.144531 -5.613281 -3.171875 -6.1875 -3.390625 C -6.644531 -3.554688 -7.007812 -3.84375 -7.28125 -4.25 C -7.550781 -4.65625 -7.703125 -5.148438 -7.734375 -5.734375 C -7.765625 -6.316406 -7.664062 -6.925781 -7.4375 -7.5625 C -7.0625 -8.539062 -6.515625 -9.238281 -5.796875 -9.65625 C -5.078125 -10.082031 -4.273438 -10.148438 -3.390625 -9.859375 L -3.953125 -8.390625 C -4.429688 -8.535156 -4.867188 -8.488281 -5.265625 -8.25 C -5.671875 -8.007812 -5.984375 -7.609375 -6.203125 -7.046875 C -6.398438 -6.515625 -6.441406 -6.050781 -6.328125 -5.65625 C -6.222656 -5.269531 -5.988281 -5.007812 -5.625 -4.875 C -5.332031 -4.757812 -5.054688 -4.757812 -4.796875 -4.875 C -4.546875 -4.988281 -4.304688 -5.164062 -4.078125 -5.40625 C -3.859375 -5.65625 -3.582031 -6.003906 -3.25 -6.453125 C -2.84375 -7.023438 -2.476562 -7.476562 -2.15625 -7.8125 C -1.84375 -8.15625 -1.46875 -8.40625 -1.03125 -8.5625 C -0.59375 -8.71875 -0.109375 -8.703125 0.421875 -8.515625 C 0.910156 -8.328125 1.300781 -8.023438 1.59375 -7.609375 C 1.882812 -7.191406 2.046875 -6.695312 2.078125 -6.125 C 2.117188 -5.5625 2.019531 -4.957031 1.78125 -4.3125 Z M 1.78125 -4.3125 "/></g></g></g></g></g></svg>